<svg width="128" height="128" viewBox="0 0 128 128" fill="none" xmlns="http://www.w3.org/2000/svg">
  <!-- Background -->
  <rect width="128" height="128" rx="20" fill="#24292e"/>
  
  <!-- GitHub logo -->
  <path d="M64 16C38.5 16 18 36.5 18 62c0 20.3 13.2 37.5 31.5 43.6 2.3.4 3.1-1 3.1-2.2 0-1.1 0-4 0-7.8-12.8 2.8-15.5-6.2-15.5-6.2-2.1-5.3-5.1-6.7-5.1-6.7-4.2-2.9.3-2.8.3-2.8 4.6.3 7 4.7 7 4.7 4.1 7 10.8 5 13.4 3.8.4-3 1.6-5 2.9-6.1-10.2-1.2-21-5.1-21-22.7 0-5 1.8-9.1 4.7-12.3-.5-1.2-2-6.2.4-12.9 0 0 3.8-1.2 12.6 4.7 3.7-1 7.6-1.6 11.5-1.6 3.9 0 7.8.5 11.5 1.6 8.7-5.9 12.5-4.7 12.5-4.7 2.5 6.3.9 11.4.4 12.6 2.9 3.2 4.7 7.3 4.7 12.3 0 17.6-10.7 21.5-20.9 22.6 1.6 1.4 3.1 4.2 3.1 8.5 0 6.1-.1 11-.1 12.5 0 1.2.8 2.7 3.2 2.2C96.8 99.4 110 82.3 110 62c0-25.5-20.5-46-46-46z" fill="white"/>
  
  <!-- Sidebar indicator -->
  <rect x="90" y="20" width="20" height="60" rx="4" fill="#fd7e14" opacity="0.9"/>
  <rect x="94" y="26" width="12" height="4" rx="1" fill="white" opacity="0.8"/>
  <rect x="94" y="34" width="12" height="4" rx="1" fill="white" opacity="0.8"/>
  <rect x="94" y="42" width="12" height="4" rx="1" fill="white" opacity="0.8"/>
  <rect x="94" y="50" width="12" height="4" rx="1" fill="white" opacity="0.8"/>
  <rect x="94" y="58" width="12" height="4" rx="1" fill="white" opacity="0.8"/>
  <rect x="94" y="66" width="12" height="4" rx="1" fill="white" opacity="0.8"/>
</svg>